<?xml version="1.0" encoding="UTF-8"?>
<svg id="Layer_2" data-name="Layer 2" xmlns="http://www.w3.org/2000/svg" viewBox="0 0 200.72 219.54">
  <defs>
    <style>
      .cls-1 {
        fill: #a4d751;
      }

      .cls-2 {
        fill: #ff8001;
      }
    </style>
  </defs>
  <g id="Layer_1-2" data-name="Layer 1">
    <g>
      <path class="cls-2" d="m197.67,91.29c0,50.42-40.87,91.29-91.29,91.29-15.9,0-30.85-4.06-43.86-11.21l5.22-.17c10.65,4.64,23.32,7.5,35.69,7.5,47.98,0,86.88-38.76,86.88-86.58S151.43,5.54,103.44,5.54,16.56,44.3,16.56,92.11c0,.82.01,1.65.04,2.47l-1.43.37c-.05-1.21-.07-2.44-.07-3.66C15.1,40.87,55.97,0,106.39,0s91.29,40.87,91.29,91.29Z"/>
      <path class="cls-1" d="m70.38,71.8s17.17-1.09,25.27,18.26v15.08h45.75l-.48-24.51s.08-14.11-.97-14.67c0,0-28.88-45.06-33.56-47.36,0,0-43.83,59.78-54.15,78.48,0,0,2.18-20.44-11.25-14.51v-7.74L106.39,12.91l65.59,62.51v7.5s-8.4-5.36-10.82,5.52l-2.14,47.44s-1.01,33.74-44.57,40.32c0,0-39.8,3.42-55.6-20.77,0,0-9.19-10-13.02-23.3,0,0-10.16-26.36-25.15-27.81,0,0,11.13,1.57,23.22,29.63,0,0,5.32,24.76,22.61,36.64l-4.35.3s-22.13-12.64-32.65-30.17c0,0-10.4-20.19-12.7-31.92,0,0-2.77-6.41-13.84-5.8,0,0,13.6-13.66,38.63-5.08,0,0,21.28,9.15,25.88,34.83,0,0,3.26,37.85,31.44,39.9,0,0,29.14,4.84,40.63-25.88,0,0,3.14-23.94,1.45-28.18l-45.47-.73.12,26.36s.6,13.18,11.49,18.98c0,0-26.12-.24-29.87-19.35v-49.94s-.36-16.57-6.89-22.13Z"/>
      <g>
        <path class="cls-2" d="m10.41,203.59c-.51.93-1.29,1.61-2.33,2.03-.58.23-1.43.44-2.54.6,1.63.37,2.81,1.29,3.53,2.75.56,1.12.98,1.87,1.26,2.27.68.91,1.36,1.36,2.06,1.36.39,0,.87-.12,1.43-.35l-.94,2.52c-.77.28-1.5.42-2.2.42-1.56,0-2.97-.74-4.23-2.23-.07-.09-.99-1.5-2.77-4.22-.98-1.51-1.88-2.27-2.69-2.26-.26,0-.51.06-.77.18v-3.35c1.18.42,2.21.62,3.1.62,2.07,0,3.1-.95,3.1-2.84,0-.63-.17-1.23-.49-1.82-.37-.67-.84-1.05-1.4-1.11H0s0-2.09,0-2.09l21.97-.05v2.1s-2.47,0-2.47,0l.04,15.3h-4.53s-.02-9.07-.02-9.07h-4.57c-.02-.32-.02-.57,0-.76Zm4.57-1.55v-3.91s-6.18.01-6.18.01c.54.12,1.03.51,1.46,1.19.43.67.64,1.3.64,1.88,0,.3-.06.58-.17.84h4.25Z"/>
        <path class="cls-2" d="m18.32,213.42c2.95,0,4.42.97,4.4,2.92-.02,2.12-2.06,3.18-6.13,3.19-1.86,0-3.85-.75-5.97-2.26l1.95-2.21c.21.74.74,1.37,1.57,1.87.84.5,1.66.75,2.48.75,1.02,0,1.53-.4,1.53-1.19,0-.61-.4-.91-1.19-.91-.93,0-1.65.39-2.16,1.16v-2.31c.55-.68,1.72-1.02,3.51-1.02Z"/>
        <path class="cls-2" d="m36.54,204.3h-4.57c-.05-.32-.06-.57-.04-.76-.51.93-1.29,1.61-2.33,2.03-.58.23-1.43.43-2.54.6,1.63.37,2.8,1.29,3.53,2.75.56,1.12.98,1.87,1.26,2.27.68.91,1.36,1.36,2.06,1.36.4,0,.87-.12,1.43-.35l-.94,2.52c-.77.28-1.5.42-2.2.42-1.81,0-3.3-.85-4.47-2.58-.51-.77-1.49-2.24-2.94-4.43-.75-1.12-1.53-1.67-2.34-1.67-.23,0-.47.05-.7.14v-3.35c1.18.42,2.2.62,3.06.62,2.09,0,3.14-.94,3.13-2.82,0-.62-.17-1.23-.49-1.8-.37-.69-.84-1.07-1.4-1.14h-4.74s0-2.09,0-2.09l15.45-.04v2.1s-6.45.02-6.45.02c.65.07,1.16.4,1.54,1,.33.51.49,1.11.49,1.8,0,.35-.03.72-.1,1.11h4.29s0,2.3,0,2.3Z"/>
        <path class="cls-2" d="m44.8,202.18c-.49-.28-.99-.42-1.5-.42-1.93.03-2.89,1.45-2.88,4.27,0,.98.18,1.83.53,2.55.44.93,1.11,1.39,1.99,1.39.7,0,1.38-.29,2.06-.88l-.03-11.04-9.28.02v-2.1s16.18-.04,16.18-.04v2.1s-2.44,0-2.44,0l.04,15.3h-4.46s0-1.39,0-1.39c-.49.42-1.42.63-2.79.64-2,0-3.57-.57-4.71-1.72-1.14-1.15-1.74-2.74-1.79-4.77-.05-2.07.42-3.7,1.42-4.89,1.04-1.28,2.58-1.93,4.6-1.93.72,0,1.44.09,2.16.27l.91,2.62Z"/>
        <path class="cls-2" d="m52.53,213.34l-.04-15.3h-1.26s0-2.09,0-2.09l8.2-.02v2.1s-2.47,0-2.47,0l.04,15.3h-4.46Z"/>
        <path class="cls-2" d="m74.03,204.21h-4.57c-.05-.32-.06-.57-.04-.76-.51.93-1.29,1.61-2.33,2.03-.58.23-1.43.44-2.54.6,1.63.37,2.8,1.29,3.53,2.75.56,1.12.98,1.87,1.26,2.27.68.91,1.36,1.36,2.06,1.36.4,0,.87-.12,1.43-.35l-.94,2.52c-.77.28-1.5.42-2.2.42-1.81,0-3.3-.85-4.47-2.57-.51-.77-1.49-2.24-2.94-4.43-.75-1.12-1.53-1.67-2.34-1.67-.23,0-.47.05-.7.14v-3.35c1.18.42,2.2.62,3.06.62,2.09,0,3.14-.94,3.13-2.82,0-.62-.17-1.23-.49-1.81-.37-.69-.84-1.07-1.4-1.14h-4.74s0-2.09,0-2.09l15.45-.04v2.1s-6.45.02-6.45.02c.65.07,1.16.4,1.54,1,.33.51.49,1.11.49,1.8,0,.35-.03.72-.1,1.11h4.29s0,2.3,0,2.3Z"/>
        <path class="cls-2" d="m79.87,195.49c2.53,0,4.37,1.04,5.52,3.13.54.98.81,1.95.81,2.93,0,1.03-.29,2.03-.86,3.01-1.27,2.15-3.61,3.28-7,3.41,2.45,1.65,4.32,2.47,5.62,2.47,1.46,0,2.76-.83,3.9-2.49l-.02-9.99h-2.23s0-2.09,0-2.09l9.17-.02v2.1s-2.65,0-2.65,0l.04,15.3h-4.29s0-1.77,0-1.77c-1.37,1.05-3.03,1.58-5.01,1.58-1.79,0-3.52-.4-5.19-1.21-1.81-.86-3.15-2.01-4.01-3.45v-3.88c1.41.67,2.68,1.01,3.8,1,1.33,0,2.39-.45,3.19-1.35.8-.9,1.2-2.02,1.2-3.37,0-.7-.13-1.33-.39-1.89-.33-.7-.79-1.08-1.4-1.15-.58-.07-1.04.12-1.38.58-.34.46-.5.99-.5,1.59,0,1.23.53,1.85,1.57,1.85.14,0,.29-.01.45-.04l-1.81,1.54c-.21.05-.44.07-.7.07-.98,0-1.85-.33-2.62-.99-.77-.66-1.15-1.47-1.16-2.43,0-.65.21-1.31.62-1.96h-1.36s0-2.09,0-2.09h1.99s0,1.04,0,1.04c.95-.96,2.52-1.44,4.71-1.44Z"/>
        <path class="cls-2" d="m113.52,210.82l-.91-1.95c1.35-.05,2.02-.54,2.02-1.47,0-.63-.34-1.12-1.01-1.47-.54-.28-1.15-.43-1.85-.45-2.7-.04-4.11,1.05-4.25,3.27-.09,1.43.42,2.53,1.54,3.3.93.65,2.14.98,3.63.97,2.56,0,4.72-.81,6.48-2.43l-.83,3.64c-2.49.8-4.78,1.2-6.87,1.2-2.16,0-4.06-.46-5.69-1.38-1.98-1.14-2.97-2.71-2.98-4.71,0-2.1,1.08-3.61,3.27-4.55-1.63-.23-2.48-.91-2.55-2.06-.07-1.21.4-2.11,1.42-2.69.84-.49,1.89-.74,3.17-.74h5.06s0-1.41,0-1.41l-10.39.02v-2.1s18.38-.04,18.38-.04v2.1s-3.52,0-3.52,0v3.49s-8.02.02-8.02.02c-.83,0-1.25.33-1.25,1,0,.5.3.86.91,1.06,1.04-.16,2.11-.25,3.2-.25,4.13,0,6.34,1.23,6.65,3.72.14,1.17-.48,2.14-1.88,2.94-1.14.66-2.24.98-3.31.99-.16,0-.3-.01-.42-.03Z"/>
        <path class="cls-2" d="m128.7,195.76v2.1s-2.44,0-2.44,0l.04,15.3h-4.46s-.04-15.29-.04-15.29h-1.19s0-2.09,0-2.09h1.33c-.47-.4-.72-.85-.77-1.36-.19-1.96.53-3.43,2.15-4.41,1.23-.75,2.91-1.17,5.05-1.27,2.16-.1,4.51.28,7.05,1.14,2.93.99,5.23,2.39,6.88,4.18l-4.6,1.65c-1.73-2.88-4.18-4.32-7.37-4.32-2.98,0-4.6.86-4.88,2.56-.12.65.15,1.26.81,1.81h2.44Z"/>
        <path class="cls-2" d="m143.29,204.05h-4.57c-.05-.32-.06-.57-.04-.76-.51.93-1.29,1.61-2.33,2.03-.58.23-1.43.43-2.54.6,1.63.37,2.81,1.29,3.53,2.75.56,1.12.98,1.87,1.26,2.27.68.91,1.36,1.36,2.06,1.36.4,0,.87-.12,1.43-.35l-.94,2.52c-.77.28-1.5.42-2.2.42-1.81,0-3.3-.85-4.47-2.58-.51-.77-1.49-2.24-2.94-4.43-.75-1.12-1.53-1.67-2.34-1.67-.23,0-.47.05-.7.14v-3.35c1.18.42,2.2.62,3.06.62,2.09,0,3.14-.94,3.13-2.82,0-.62-.17-1.23-.49-1.8-.37-.69-.84-1.07-1.4-1.14h-4.74s0-2.09,0-2.09l15.45-.04v2.1s-6.45.02-6.45.02c.65.07,1.16.4,1.54,1,.33.51.49,1.11.49,1.8,0,.35-.03.72-.1,1.11h4.29s0,2.3,0,2.3Z"/>
        <path class="cls-2" d="m144.07,206.35l-.02-8.53h-1.6s0-2.09,0-2.09l17.72-.04v2.1s-2.44,0-2.44,0l.04,15.3h-4.22s0-2.4,0-2.4c-1.02.84-2.23,1.26-3.62,1.27-1.67,0-3.07-.51-4.17-1.55-1.11-1.03-1.66-2.39-1.67-4.07Zm9.45,1.13l-.02-9.68h-5.06s.02,8.15.02,8.15c0,1.93.87,2.9,2.59,2.89,1.3,0,2.13-.46,2.47-1.37Z"/>
        <path class="cls-2" d="m168.81,197.77l-9.31.02v-2.1s17.29-.04,17.29-.04v2.1s-3.52,0-3.52,0v4.09c-1.08-.21-2.07-.31-2.96-.31-3.49,0-5.21,1.58-5.15,4.73.03,1.37.42,2.44,1.18,3.21.76.77,1.81,1.15,3.16,1.15,1.02,0,2.01-.24,2.96-.71,1.05-.52,1.78-1.19,2.19-2.03v3.77c-1.31,1.03-3.1,1.55-5.36,1.55-2.42,0-4.55-.54-6.39-1.63-2.19-1.3-3.29-3.08-3.29-5.34,0-2.47.95-4.31,2.88-5.53,1.6-1.03,3.7-1.55,6.31-1.55v-1.4Z"/>
        <path class="cls-2" d="m185.85,205.03c0-.77-.17-1.44-.49-2.03-.4-.74-.94-1.12-1.64-1.11-.91,0-1.57.62-1.98,1.86-.3.89-.45,1.88-.45,2.97,0,3.42,1.22,5.13,3.64,5.13,1.09,0,2.41-.37,3.94-1.09l-.9,3.04c-1.16.31-2.29.46-3.38.46-2.28,0-4.16-.61-5.65-1.84-1.61-1.32-2.41-3.1-2.42-5.34,0-2.19.48-3.98,1.45-5.38,1.11-1.61,2.71-2.42,4.81-2.42,1.16,0,2.24.29,3.23.88.99.59,1.68,1.41,2.08,2.46.14-.84.54-1.5,1.22-2,.67-.49,1.44-.74,2.3-.74.86,0,1.52.23,1.99.69v-2.87s-17.45.04-17.45.04v-2.1s24.58-.06,24.58-.06v2.1s-2.44,0-2.44,0l.04,15.3h-4.71s-.02-9.53-.02-9.53c-.42-.39-.97-.59-1.64-.59-1.14,0-1.71.75-1.7,2.24v3.49s-4.39,0-4.39,0v-3.6Z"/>
      </g>
    </g>
  </g>
</svg>