<?xml version="1.0" encoding="utf-8"?>
<!-- Generator: Adobe Illustrator 27.9.0, SVG Export Plug-In . SVG Version: 6.00 Build 0)  -->
<svg version="1.1" id="Layer_2_00000045601076163300038100000015803721793704836796_"
	 xmlns="http://www.w3.org/2000/svg" xmlns:xlink="http://www.w3.org/1999/xlink" x="0px" y="0px" viewBox="0 0 1919.8 1080.3"
	 style="enable-background:new 0 0 1919.8 1080.3;" xml:space="preserve">
<style type="text/css">
	.st0{fill:#FF8001;}
	.st1{fill:#A4D751;}
	.st2{fill:none;}
</style>
<g id="Layer_1-2">
	<g>
		<path class="st0" d="M1457.5,460.6c0,243.2-197.1,440.3-440.3,440.3c-76.7,0-148.8-19.6-211.6-54.1l25.2-0.8
			c51.4,22.4,112.5,36.2,172.2,36.2c231.4,0,419.1-187,419.1-417.6S1234.4,47,1002.9,47S583.9,234,583.9,464.6c0,4,0,8,0.2,11.9
			l-6.9,1.8c-0.2-5.8-0.3-11.8-0.3-17.7c0-243.2,197.1-440.3,440.3-440.3S1457.5,217.4,1457.5,460.6L1457.5,460.6z"/>
		<path class="st1" d="M843.5,366.6c0,0,82.8-5.3,121.9,88.1v72.7H1186l-2.3-118.2c0,0,0.4-68.1-4.7-70.8
			c0,0-139.3-217.4-161.9-228.4c0,0-211.4,288.4-261.2,378.6c0,0,10.5-98.6-54.3-70v-37.3l315.5-298.7l316.4,301.5v36.2
			c0,0-40.5-25.9-52.2,26.6L1271,675.7c0,0-4.9,162.7-215,194.5c0,0-114.8,9.9-202.1-39.6c-25.6-14.5-48.8-34.1-66.1-60.6
			c0,0-44.3-48.2-62.8-112.4c0,0-49-127.2-121.3-134.1c0,0,53.7,7.6,112,142.9c0,0,25.7,119.4,109.1,176.7l-21,1.4
			c0,0-106.7-61-157.5-145.5c0,0-50.2-97.4-61.3-154c0,0-13.4-30.9-66.8-28c0,0,65.6-65.9,186.3-24.5c0,0,102.6,44.1,124.8,168
			c0,0,3.4,39.8,20.9,83.2c6.1,15.2,23.9,45.3,23.9,45.3s56.5,60.3,106.8,64c0,0,140.6,23.3,196-124.8c0,0,15.1-115.5,7-135.9
			l-219.3-3.5l0.6,127.2c0,0,2.9,63.6,55.4,91.6c0,0-126-1.2-144.1-93.3V473.3C876.7,473.3,875,393.4,843.5,366.6L843.5,366.6z"/>
		<g>
			<path class="st0" d="M554.2,1002.3c-2.5,4.5-6.2,7.8-11.2,9.8c-2.8,1.1-6.9,2.1-12.3,2.9c7.9,1.8,13.6,6.2,17,13.3
				c2.7,5.4,4.7,9,6.1,10.9c3.3,4.4,6.6,6.6,9.9,6.6c1.9,0,4.2-0.6,6.9-1.7l-4.5,12.2c-3.7,1.4-7.2,2-10.6,2
				c-7.5,0-14.3-3.6-20.4-10.8c-0.3-0.4-4.8-7.2-13.4-20.4c-4.7-7.3-9.1-10.9-13-10.9c-1.3,0-2.5,0.3-3.7,0.9V1001
				c5.7,2,10.7,3,15,3c10,0,15-4.6,15-13.7c0-3-0.8-5.9-2.4-8.8c-1.8-3.2-4.1-5.1-6.8-5.4H504v-10.1l106-0.2v10.1h-11.9l0.2,73.8
				h-21.9l-0.1-43.8h-22C554.2,1004.5,554.2,1003.2,554.2,1002.3L554.2,1002.3z M576.2,994.9V976l-29.8,0c2.6,0.6,5,2.5,7,5.7
				c2.1,3.2,3.1,6.3,3.1,9.1c0,1.4-0.3,2.8-0.8,4.1L576.2,994.9L576.2,994.9z"/>
			<path class="st0" d="M592.4,1049.7c14.2,0,21.3,4.7,21.2,14.1c-0.1,10.2-9.9,15.3-29.6,15.4c-9,0-18.6-3.6-28.8-10.9l9.4-10.7
				c1,3.6,3.6,6.6,7.6,9c4.1,2.4,8,3.6,12,3.6c4.9,0,7.4-1.9,7.4-5.7c0-2.9-1.9-4.4-5.7-4.4c-4.5,0-8,1.9-10.4,5.6v-11.1
				C578,1051.3,583.7,1049.7,592.4,1049.7L592.4,1049.7z"/>
			<path class="st0" d="M680.2,1005.8h-22c-0.2-1.5-0.3-2.7-0.2-3.7c-2.5,4.5-6.2,7.8-11.2,9.8c-2.8,1.1-6.9,2.1-12.3,2.9
				c7.9,1.8,13.5,6.2,17,13.3c2.7,5.4,4.7,9,6.1,10.9c3.3,4.4,6.6,6.6,9.9,6.6c1.9,0,4.2-0.6,6.9-1.7l-4.5,12.2
				c-3.7,1.4-7.2,2-10.6,2c-8.7,0-15.9-4.1-21.6-12.4c-2.5-3.7-7.2-10.8-14.2-21.4c-3.6-5.4-7.4-8.1-11.3-8.1
				c-1.1,0-2.3,0.2-3.4,0.7v-16.2c5.7,2,10.6,3,14.8,3c10.1,0,15.1-4.5,15.1-13.6c0-3-0.8-5.9-2.4-8.7c-1.8-3.3-4.1-5.2-6.8-5.5
				h-22.9v-10.1l74.5-0.2v10.1l-31.1,0.1c3.1,0.3,5.6,1.9,7.4,4.8c1.6,2.5,2.4,5.4,2.4,8.7c0,1.7-0.1,3.5-0.5,5.4h20.7L680.2,1005.8
				L680.2,1005.8z"/>
			<path class="st0" d="M720.1,995.5c-2.4-1.4-4.8-2-7.2-2c-9.3,0.1-13.9,7-13.9,20.6c0,4.7,0.9,8.8,2.6,12.3
				c2.1,4.5,5.4,6.7,9.6,6.7c3.4,0,6.7-1.4,9.9-4.2l-0.1-53.3l-44.8,0.1v-10.1l78-0.2v10.1h-11.8l0.2,73.8h-21.5v-6.7
				c-2.4,2-6.8,3-13.5,3.1c-9.6,0-17.2-2.7-22.7-8.3c-5.5-5.5-8.4-13.2-8.6-23c-0.2-10,2-17.8,6.8-23.6c5-6.2,12.4-9.3,22.2-9.3
				c3.5,0,6.9,0.4,10.4,1.3L720.1,995.5L720.1,995.5z"/>
			<path class="st0" d="M757.4,1049.4l-0.2-73.8h-6.1v-10.1l39.6-0.1v10.1h-11.9l0.2,73.8L757.4,1049.4L757.4,1049.4z"/>
			<path class="st0" d="M861.1,1005.3h-22c-0.2-1.5-0.3-2.7-0.2-3.7c-2.5,4.5-6.2,7.8-11.2,9.8c-2.8,1.1-6.9,2.1-12.3,2.9
				c7.9,1.8,13.5,6.2,17,13.3c2.7,5.4,4.7,9,6.1,10.9c3.3,4.4,6.6,6.6,9.9,6.6c1.9,0,4.2-0.6,6.9-1.7l-4.5,12.2
				c-3.7,1.4-7.2,2-10.6,2c-8.7,0-15.9-4.1-21.6-12.4c-2.5-3.7-7.2-10.8-14.2-21.4c-3.6-5.4-7.4-8.1-11.3-8.1
				c-1.1,0-2.3,0.2-3.4,0.7v-16.2c5.7,2,10.6,3,14.8,3c10.1,0,15.1-4.5,15.1-13.6c0-3-0.8-5.9-2.4-8.7c-1.8-3.3-4.1-5.2-6.8-5.5
				h-22.9v-10.1l74.5-0.2v10.1l-31.1,0.1c3.1,0.3,5.6,1.9,7.4,4.8c1.6,2.5,2.4,5.4,2.4,8.7c0,1.7-0.1,3.5-0.5,5.4H861L861.1,1005.3
				L861.1,1005.3z"/>
			<path class="st0" d="M889.3,963.3c12.2,0,21.1,5,26.6,15.1c2.6,4.7,3.9,9.4,3.9,14.1c0,5-1.4,9.8-4.1,14.5
				c-6.1,10.4-17.4,15.8-33.8,16.4c11.8,8,20.8,11.9,27.1,11.9c7,0,13.3-4,18.8-12l-0.1-48.2h-10.8v-10.1l44.2-0.1v10.1h-12.8
				l0.2,73.8h-20.7v-8.5c-6.6,5.1-14.6,7.6-24.2,7.6c-8.6,0-17-1.9-25-5.8c-8.7-4.1-15.2-9.7-19.3-16.6v-18.7
				c6.8,3.2,12.9,4.9,18.3,4.8c6.4,0,11.5-2.2,15.4-6.5c3.9-4.3,5.8-9.7,5.8-16.3c0-3.4-0.6-6.4-1.9-9.1c-1.6-3.4-3.8-5.2-6.8-5.5
				c-2.8-0.3-5,0.6-6.7,2.8c-1.6,2.2-2.4,4.8-2.4,7.7c0,5.9,2.6,8.9,7.6,8.9c0.7,0,1.4,0,2.2-0.2l-8.7,7.4c-1,0.2-2.1,0.3-3.4,0.3
				c-4.7,0-8.9-1.6-12.6-4.8c-3.7-3.2-5.5-7.1-5.6-11.7c0-3.1,1-6.3,3-9.5H857v-10.1h9.6v5C871.2,965.5,878.7,963.2,889.3,963.3
				L889.3,963.3z"/>
			<path class="st0" d="M1051.6,1037.2l-4.4-9.4c6.5-0.2,9.7-2.6,9.7-7.1c0-3-1.6-5.4-4.9-7.1c-2.6-1.4-5.5-2.1-8.9-2.2
				c-13-0.2-19.8,5.1-20.5,15.8c-0.4,6.9,2,12.2,7.4,15.9c4.5,3.1,10.3,4.7,17.5,4.7c12.3,0,22.8-3.9,31.3-11.7l-4,17.6
				c-12,3.9-23.1,5.8-33.1,5.8c-10.4,0-19.6-2.2-27.4-6.7c-9.6-5.5-14.3-13.1-14.4-22.7c0-10.1,5.2-17.4,15.8-21.9
				c-7.9-1.1-12-4.4-12.3-9.9c-0.3-5.8,1.9-10.2,6.8-13c4.1-2.4,9.1-3.6,15.3-3.6h24.4v-6.8l-50.1,0.1v-10.1l88.7-0.2v10.1h-17v16.8
				l-38.7,0.1c-4,0-6,1.6-6,4.8c0,2.4,1.4,4.1,4.4,5.1c5-0.8,10.2-1.2,15.4-1.2c19.9,0,30.6,5.9,32.1,17.9
				c0.7,5.6-2.3,10.3-9.1,14.2c-5.5,3.2-10.8,4.7-16,4.8C1052.8,1037.3,1052.1,1037.3,1051.6,1037.2L1051.6,1037.2z"/>
			<path class="st0" d="M1124.8,964.6v10.1H1113l0.2,73.8h-21.5l-0.2-73.8h-5.7v-10.1h6.4c-2.3-1.9-3.5-4.1-3.7-6.6
				c-0.9-9.5,2.6-16.5,10.4-21.3c5.9-3.6,14-5.6,24.4-6.1c10.4-0.5,21.8,1.4,34,5.5c14.1,4.8,25.2,11.5,33.2,20.2l-22.2,8
				c-8.3-13.9-20.2-20.8-35.5-20.8c-14.4,0-22.2,4.1-23.5,12.3c-0.6,3.1,0.7,6.1,3.9,8.7L1124.8,964.6L1124.8,964.6z"/>
			<path class="st0" d="M1195.2,1004.6h-22c-0.2-1.5-0.3-2.7-0.2-3.7c-2.5,4.5-6.2,7.8-11.2,9.8c-2.8,1.1-6.9,2.1-12.3,2.9
				c7.9,1.8,13.6,6.2,17,13.3c2.7,5.4,4.7,9,6.1,10.9c3.3,4.4,6.6,6.6,9.9,6.6c1.9,0,4.2-0.6,6.9-1.7l-4.5,12.2
				c-3.7,1.4-7.2,2-10.6,2c-8.7,0-15.9-4.1-21.6-12.4c-2.5-3.7-7.2-10.8-14.2-21.4c-3.6-5.4-7.4-8.1-11.3-8.1
				c-1.1,0-2.3,0.2-3.4,0.7v-16.2c5.7,2,10.6,3,14.8,3c10.1,0,15.1-4.5,15.1-13.6c0-3-0.8-5.9-2.4-8.7c-1.8-3.3-4.1-5.2-6.8-5.5
				h-22.9v-10.1l74.5-0.2v10.1l-31.1,0.1c3.1,0.3,5.6,1.9,7.4,4.8c1.6,2.5,2.4,5.4,2.4,8.7c0,1.7-0.1,3.5-0.5,5.4h20.7
				L1195.2,1004.6L1195.2,1004.6z"/>
			<path class="st0" d="M1198.9,1015.6l-0.1-41.1h-7.7v-10.1l85.5-0.2v10.1h-11.8l0.2,73.8h-20.4v-11.6c-4.9,4.1-10.8,6.1-17.5,6.1
				c-8.1,0-14.8-2.5-20.1-7.5C1201.7,1030.3,1199.1,1023.7,1198.9,1015.6L1198.9,1015.6z M1244.5,1021.1l-0.1-46.7H1220l0.1,39.3
				c0,9.3,4.2,14,12.5,13.9C1238.9,1027.7,1242.9,1025.4,1244.5,1021.1L1244.5,1021.1z"/>
			<path class="st0" d="M1318.3,974.3l-44.9,0.1v-10.1l83.4-0.2v10.1h-17v19.7c-5.2-1-10-1.5-14.3-1.5c-16.8,0-25.1,7.6-24.8,22.8
				c0.1,6.6,2,11.8,5.7,15.5c3.7,3.7,8.7,5.5,15.2,5.5c4.9,0,9.7-1.2,14.3-3.4c5.1-2.5,8.6-5.7,10.6-9.8v18.2
				c-6.3,5-15,7.5-25.9,7.5c-11.7,0-21.9-2.6-30.8-7.9c-10.6-6.3-15.9-14.9-15.9-25.8c0-11.9,4.6-20.8,13.9-26.7
				c7.7-5,17.8-7.5,30.4-7.5L1318.3,974.3L1318.3,974.3z"/>
			<path class="st0" d="M1400.5,1009.3c0-3.7-0.8-6.9-2.4-9.8c-1.9-3.6-4.5-5.4-7.9-5.4c-4.4,0-7.6,3-9.6,9
				c-1.4,4.3-2.2,9.1-2.2,14.3c0,16.5,5.9,24.7,17.6,24.7c5.3,0,11.6-1.8,19-5.3l-4.3,14.7c-5.6,1.5-11,2.2-16.3,2.2
				c-11,0-20.1-2.9-27.3-8.9c-7.8-6.4-11.6-15-11.7-25.8c0-10.6,2.3-19.2,7-26c5.4-7.8,13.1-11.7,23.2-11.7c5.6,0,10.8,1.4,15.6,4.2
				s8.1,6.8,10,11.9c0.7-4.1,2.6-7.2,5.9-9.6c3.2-2.4,6.9-3.6,11.1-3.6s7.3,1.1,9.6,3.3v-13.8l-84.2,0.2V964l118.6-0.3v10.1h-11.8
				l0.2,73.8h-22.7l-0.1-46c-2-1.9-4.7-2.8-7.9-2.8c-5.5,0-8.2,3.6-8.2,10.8v16.8h-21.2v-17.4L1400.5,1009.3z"/>
		</g>
	</g>
</g>
<path class="st1" d="M539.8,573.1"/>
<polyline class="st2" points="518.3,517.1 585.1,545.1 688.6,753.6 803.8,844.6 824.8,843.2 715.7,666.4 603.7,523.5 655,549 
	725.1,657.6 837.2,820.1 858.3,833 869.8,781.4 816.9,615.7 704.7,492.6 598,481.3 "/>
</svg>
