<?xml version="1.0" encoding="UTF-8"?>
<svg id="Layer_2" data-name="Layer 2" xmlns="http://www.w3.org/2000/svg" viewBox="0 0 554.87 97.63">
  <defs>
    <style>
      .cls-1 {
        fill: #a4d751;
      }

      .cls-2 {
        fill: #ff8001;
      }
    </style>
  </defs>
  <g id="Layer_1-2" data-name="Layer 1">
    <g>
      <g>
        <path class="cls-2" d="m104.12,48.82c0,26.96-21.86,48.82-48.81,48.82-8.5,0-16.49-2.17-23.45-5.99l2.79-.09c5.7,2.48,12.47,4.01,19.09,4.01,25.66,0,46.46-20.73,46.46-46.3S79.38,2.96,53.73,2.96,7.27,23.69,7.27,49.26c0,.44,0,.88.02,1.32l-.76.2c-.03-.65-.04-1.3-.04-1.96C6.49,21.86,28.34,0,55.3,0s48.81,21.86,48.81,48.82Z"/>
        <path class="cls-1" d="m36.05,38.39s9.18-.58,13.51,9.76v8.06h24.46l-.26-13.11s.04-7.54-.52-7.85c0,0-15.44-24.1-17.95-25.33,0,0-23.44,31.97-28.95,41.97,0,0,1.16-10.93-6.01-7.76v-4.14L55.3,6.9l35.07,33.43v4.01s-4.49-2.87-5.79,2.95l-1.14,25.37s-.54,18.04-23.83,21.56c0,0-21.28,1.83-29.73-11.11,0,0-4.91-5.35-6.96-12.46,0,0-5.43-14.1-13.45-14.87,0,0,5.95.84,12.42,15.84,0,0,2.85,13.24,12.09,19.59l-2.33.16s-11.83-6.76-17.46-16.13c0,0-5.56-10.8-6.79-17.07,0,0-1.48-3.43-7.4-3.1,0,0,7.27-7.31,20.66-2.72,0,0,11.38,4.89,13.84,18.62,0,0,1.75,20.24,16.81,21.34,0,0,15.58,2.59,21.73-13.84,0,0,1.68-12.8.78-15.07l-24.31-.39.06,14.1s.32,7.05,6.14,10.15c0,0-13.97-.13-15.97-10.35v-26.71s-.19-8.86-3.69-11.83Z"/>
      </g>
      <g>
        <path class="cls-2" d="m142.02,52.72c-1.11,2.02-2.79,3.49-5.06,4.41-1.26.51-3.1.94-5.52,1.3,3.53.8,6.09,2.79,7.66,5.97,1.22,2.42,2.13,4.06,2.74,4.92,1.47,1.97,2.96,2.95,4.47,2.95.86,0,1.89-.26,3.1-.77l-2.03,5.46c-1.66.61-3.25.92-4.76.92-3.38,0-6.43-1.6-9.17-4.83-.15-.2-2.15-3.25-6-9.16-2.13-3.28-4.07-4.92-5.84-4.91-.56,0-1.11.13-1.66.38l-.02-7.28c2.57.9,4.82,1.35,6.74,1.35,4.49-.01,6.73-2.06,6.72-6.15,0-1.36-.36-2.68-1.07-3.94-.81-1.46-1.82-2.27-3.03-2.42l-9.84.02v-4.55s47.66-.11,47.66-.11v4.55s-5.36.01-5.36.01l.08,33.2-9.84.02-.05-19.71-9.91.02c-.05-.71-.05-1.26,0-1.67Zm9.9-3.36l-.02-8.49-13.39.03c1.18.25,2.23,1.11,3.16,2.57.93,1.46,1.39,2.83,1.39,4.09,0,.66-.12,1.26-.37,1.82l9.23-.02Z"/>
        <path class="cls-2" d="m159.16,74.05c6.41-.01,9.59,2.1,9.55,6.34-.04,4.6-4.47,6.91-13.3,6.93-4.03,0-8.35-1.62-12.95-4.9l4.23-4.78c.46,1.62,1.6,2.96,3.41,4.05,1.82,1.08,3.61,1.62,5.38,1.62,2.22,0,3.33-.87,3.32-2.58,0-1.31-.86-1.97-2.58-1.97-2.02,0-3.58.84-4.68,2.51v-5c1.2-1.47,3.74-2.21,7.62-2.22Z"/>
        <path class="cls-2" d="m198.69,54.26l-9.91.02c-.1-.71-.13-1.26-.08-1.67-1.11,2.02-2.79,3.49-5.06,4.41-1.26.51-3.1.94-5.52,1.3,3.53.8,6.08,2.79,7.66,5.97,1.22,2.42,2.13,4.06,2.74,4.92,1.47,1.97,2.96,2.95,4.47,2.95.86,0,1.89-.26,3.1-.76l-2.03,5.46c-1.66.61-3.25.92-4.76.92-3.93,0-7.17-1.85-9.7-5.59-1.11-1.66-3.24-4.87-6.38-9.61-1.62-2.42-3.31-3.63-5.08-3.63-.5,0-1.01.1-1.51.31l-.02-7.28c2.57.9,4.79,1.35,6.66,1.35,4.54,0,6.81-2.05,6.8-6.12,0-1.36-.36-2.66-1.07-3.91-.81-1.5-1.82-2.33-3.03-2.48l-10.29.02v-4.55s33.51-.08,33.51-.08v4.55s-13.99.03-13.99.03c1.41.15,2.52.87,3.33,2.17.71,1.1,1.07,2.4,1.07,3.9,0,.75-.07,1.55-.22,2.41l9.31-.02v5Z"/>
        <path class="cls-2" d="m216.61,49.66c-1.06-.6-2.15-.9-3.26-.9-4.19.06-6.27,3.15-6.26,9.26,0,2.12.39,3.97,1.15,5.53.96,2.02,2.4,3.03,4.32,3.02,1.51,0,3-.64,4.46-1.91l-.06-23.95-20.13.05v-4.55s35.1-.08,35.1-.08v4.55s-5.29.01-5.29.01l.08,33.2-9.68.02v-3.03c-1.06.91-3.08,1.37-6.06,1.38-4.34.01-7.75-1.23-10.22-3.73-2.48-2.5-3.77-5.94-3.88-10.34-.11-4.5.91-8.04,3.08-10.62,2.26-2.78,5.59-4.18,9.98-4.19,1.56,0,3.13.19,4.69.59l1.98,5.68Z"/>
        <path class="cls-2" d="m233.39,73.88l-.08-33.2h-2.72s-.01-4.54-.01-4.54l17.78-.04v4.55s-5.36.01-5.36.01l.08,33.2-9.68.02Z"/>
        <path class="cls-2" d="m280.02,54.06l-9.91.02c-.1-.71-.13-1.26-.08-1.67-1.11,2.02-2.79,3.49-5.06,4.41-1.26.51-3.1.94-5.52,1.3,3.53.8,6.08,2.79,7.66,5.97,1.22,2.42,2.13,4.06,2.74,4.92,1.47,1.97,2.96,2.95,4.47,2.95.86,0,1.89-.26,3.1-.77l-2.03,5.46c-1.66.61-3.25.92-4.76.92-3.93,0-7.17-1.85-9.7-5.59-1.11-1.66-3.24-4.87-6.38-9.61-1.62-2.42-3.31-3.63-5.08-3.63-.5,0-1.01.11-1.51.31l-.02-7.28c2.57.9,4.79,1.35,6.66,1.35,4.54-.01,6.81-2.05,6.8-6.12,0-1.36-.36-2.66-1.07-3.92-.81-1.5-1.82-2.33-3.03-2.48l-10.29.02v-4.55s33.51-.08,33.51-.08v4.55s-13.99.03-13.99.03c1.41.15,2.52.87,3.33,2.17.71,1.1,1.06,2.4,1.07,3.9,0,.75-.07,1.55-.22,2.4l9.31-.02v5Z"/>
        <path class="cls-2" d="m292.69,35.16c5.5-.01,9.49,2.25,11.97,6.79,1.17,2.12,1.75,4.24,1.76,6.36,0,2.22-.62,4.4-1.88,6.52-2.76,4.66-7.83,7.12-15.19,7.39,5.3,3.58,9.37,5.36,12.19,5.35,3.18,0,6-1.81,8.46-5.4l-.05-21.68h-4.84s-.01-4.54-.01-4.54l19.9-.05v4.55s-5.74.01-5.74.01l.08,33.2-9.31.02v-3.87c-2.97,2.28-6.59,3.43-10.87,3.44-3.88,0-7.63-.87-11.25-2.63-3.93-1.86-6.83-4.35-8.7-7.48l-.02-8.41c3.08,1.46,5.83,2.19,8.25,2.18,2.87,0,5.18-.98,6.92-2.93,1.74-1.95,2.6-4.39,2.59-7.32,0-1.52-.28-2.88-.84-4.09-.71-1.51-1.72-2.35-3.03-2.49-1.26-.15-2.26.27-2.99,1.26-.73.99-1.09,2.14-1.09,3.45,0,2.68,1.14,4.01,3.41,4.01.3,0,.63-.03.98-.08l-3.93,3.34c-.45.1-.96.15-1.51.15-2.12,0-4.01-.71-5.68-2.15-1.67-1.44-2.5-3.19-2.51-5.26,0-1.41.45-2.83,1.35-4.25h-2.95s-.01-4.54-.01-4.54h4.31s0,2.26,0,2.26c2.06-2.08,5.46-3.12,10.21-3.13Z"/>
        <path class="cls-2" d="m365.7,68.42l-1.98-4.24c2.92-.11,4.39-1.17,4.38-3.19,0-1.36-.74-2.42-2.2-3.18-1.16-.6-2.5-.93-4.01-.98-5.85-.09-8.92,2.28-9.21,7.1-.19,3.1.92,5.48,3.35,7.15,2.02,1.42,4.65,2.12,7.87,2.11,5.55-.01,10.24-1.77,14.06-5.26l-1.8,7.89c-5.39,1.73-10.36,2.6-14.9,2.61-4.69.01-8.8-.99-12.34-3-4.29-2.46-6.45-5.87-6.45-10.22-.01-4.55,2.35-7.84,7.09-9.87-3.53-.5-5.38-1.98-5.53-4.46-.16-2.62.87-4.57,3.09-5.84,1.81-1.07,4.11-1.6,6.88-1.61l10.97-.03v-3.03s-22.55.05-22.55.05v-4.55s39.86-.09,39.86-.09v4.55s-7.63.02-7.63.02l.02,7.58-17.41.04c-1.81,0-2.71.73-2.71,2.17,0,1.1.66,1.86,1.97,2.31,2.26-.36,4.57-.54,6.94-.55,8.95-.02,13.76,2.67,14.42,8.08.31,2.53-1.05,4.65-4.07,6.38-2.47,1.42-4.86,2.13-7.18,2.14-.35,0-.66-.02-.91-.07Z"/>
        <path class="cls-2" d="m398.62,35.75v4.55s-5.29.01-5.29.01l.08,33.2-9.69.02-.08-33.2h-2.57s-.01-4.54-.01-4.54h2.88c-1.01-.86-1.57-1.85-1.67-2.96-.41-4.24,1.14-7.43,4.67-9.56,2.67-1.62,6.32-2.54,10.97-2.75,4.69-.21,9.79.61,15.29,2.47,6.36,2.16,11.33,5.18,14.93,9.06l-9.98,3.59c-3.75-6.26-9.08-9.38-15.99-9.36-6.46.02-9.98,1.87-10.58,5.56-.25,1.42.33,2.73,1.75,3.94h5.3Z"/>
        <path class="cls-2" d="m430.28,53.71l-9.91.02c-.1-.71-.13-1.26-.08-1.67-1.11,2.02-2.79,3.49-5.06,4.41-1.26.51-3.1.94-5.52,1.3,3.53.8,6.09,2.79,7.66,5.97,1.22,2.42,2.13,4.06,2.74,4.92,1.47,1.97,2.96,2.95,4.47,2.95.86,0,1.89-.26,3.1-.77l-2.03,5.46c-1.66.61-3.25.92-4.76.92-3.93,0-7.17-1.85-9.7-5.59-1.11-1.67-3.24-4.87-6.38-9.61-1.62-2.42-3.31-3.63-5.08-3.63-.5,0-1.01.1-1.51.31l-.02-7.28c2.57.9,4.79,1.35,6.66,1.35,4.54-.01,6.8-2.05,6.8-6.12,0-1.36-.36-2.66-1.07-3.91-.81-1.5-1.82-2.33-3.03-2.48l-10.29.02v-4.55s33.51-.08,33.51-.08v4.55s-13.99.03-13.99.03c1.41.15,2.52.87,3.33,2.17.71,1.1,1.06,2.4,1.07,3.9,0,.75-.07,1.55-.22,2.4l9.31-.02v5Z"/>
        <path class="cls-2" d="m431.96,58.71l-.04-18.5h-3.48s-.01-4.54-.01-4.54l38.44-.09v4.55s-5.29.01-5.29.01l.08,33.2-9.15.02v-5.23c-2.23,1.82-4.85,2.74-7.87,2.75-3.63,0-6.65-1.11-9.05-3.35-2.4-2.24-3.61-5.18-3.62-8.82Zm20.51,2.45l-.05-21-10.97.03.04,17.66c0,4.19,1.88,6.29,5.61,6.28,2.82,0,4.61-1,5.37-2.97Z"/>
        <path class="cls-2" d="m485.64,40.09l-20.2.05v-4.55s37.52-.09,37.52-.09v4.55s-7.63.02-7.63.02l.02,8.87c-2.37-.45-4.52-.67-6.43-.67-7.57.02-11.29,3.44-11.17,10.26.06,2.98.91,5.3,2.55,6.97,1.64,1.66,3.93,2.49,6.85,2.48,2.22,0,4.36-.51,6.43-1.53,2.27-1.12,3.85-2.59,4.76-4.41l.02,8.19c-2.87,2.23-6.75,3.35-11.64,3.36-5.25.01-9.87-1.16-13.85-3.53-4.75-2.82-7.13-6.68-7.14-11.58-.01-5.36,2.07-9.35,6.25-11.99,3.48-2.23,8.04-3.35,13.69-3.37v-3.03Z"/>
        <path class="cls-2" d="m522.6,55.84c0-1.67-.36-3.13-1.07-4.39-.86-1.61-2.05-2.42-3.56-2.42-1.97,0-3.4,1.35-4.3,4.03-.65,1.92-.97,4.07-.97,6.44.02,7.43,2.65,11.14,7.89,11.12,2.37,0,5.22-.79,8.54-2.37l-1.95,6.6c-2.52.66-4.97,1-7.34,1-4.94.01-9.03-1.32-12.27-3.99-3.49-2.87-5.24-6.73-5.25-11.58-.01-4.75,1.04-8.64,3.15-11.68,2.41-3.49,5.89-5.24,10.43-5.26,2.52,0,4.86.63,7,1.92,2.15,1.28,3.65,3.06,4.51,5.33.3-1.82,1.18-3.26,2.64-4.33,1.46-1.06,3.12-1.6,4.99-1.6,1.86,0,3.3.5,4.32,1.5v-6.22s-37.85.09-37.85.09v-4.55s53.33-.13,53.33-.13v4.55s-5.29.01-5.29.01l.08,33.2-10.21.02-.05-20.69c-.91-.86-2.1-1.28-3.56-1.28-2.47,0-3.7,1.63-3.7,4.86l.02,7.58-9.53.02-.02-7.81Z"/>
      </g>
    </g>
  </g>
</svg>