<svg xmlns="http://www.w3.org/2000/svg" xmlns:xlink="http://www.w3.org/1999/xlink" width="517.683" height="491.251" viewBox="0 0 517.683 491.251">
  <defs>
    <filter id="Ellipse_1" x="0" y="117.719" width="83.935" height="83.935" filterUnits="userSpaceOnUse">
      <feOffset dy="3" input="SourceAlpha"/>
      <feGaussianBlur stdDeviation="3" result="blur"/>
      <feFlood flood-opacity="0.161"/>
      <feComposite operator="in" in2="blur"/>
      <feComposite in="SourceGraphic"/>
    </filter>
    <filter id="Ellipse_1-2" x="100" y="117.719" width="83.935" height="83.935" filterUnits="userSpaceOnUse">
      <feOffset dy="3" input="SourceAlpha"/>
      <feGaussianBlur stdDeviation="3" result="blur-2"/>
      <feFlood flood-opacity="0.161"/>
      <feComposite operator="in" in2="blur-2"/>
      <feComposite in="SourceGraphic"/>
    </filter>
    <filter id="Ellipse_1-3" x="203" y="117.6" width="83.983" height="84.391" filterUnits="userSpaceOnUse">
      <feOffset dy="3" input="SourceAlpha"/>
      <feGaussianBlur stdDeviation="3" result="blur-3"/>
      <feFlood flood-opacity="0.161"/>
      <feComposite operator="in" in2="blur-3"/>
      <feComposite in="SourceGraphic"/>
    </filter>
    <clipPath id="clip-path">
      <rect id="Rectangle_118" data-name="Rectangle 118" width="23" height="27" transform="translate(0.031 -0.406)" fill="#fff"/>
    </clipPath>
    <clipPath id="clip-path-2">
      <rect id="Rectangle_62" data-name="Rectangle 62" width="25" height="28" transform="translate(0.086 0.039)" fill="#fff"/>
    </clipPath>
    <clipPath id="clip-path-3">
      <rect id="Rectangle_119" data-name="Rectangle 119" width="25" height="25" transform="translate(0.031 0.367)" fill="#fff"/>
    </clipPath>
    <clipPath id="clip-path-4">
      <rect id="Rectangle_120" data-name="Rectangle 120" width="37" height="37" transform="translate(0.281 0.266)" fill="#fff"/>
    </clipPath>
    <clipPath id="clip-path-5">
      <rect id="Rectangle_121" data-name="Rectangle 121" width="15.386" height="30.772" transform="translate(30.772) rotate(90)" fill="#fff"/>
    </clipPath>
  </defs>
  <g id="Group_117" data-name="Group 117" transform="translate(2160.983 4550.5)">
    <rect id="Rectangle_117" data-name="Rectangle 117" width="102" height="72" transform="translate(-2026 -4528)" fill="#ff9800"/>
    <path id="ic_view_headline_24px" d="M4,28.67H41.873V23.936H4Zm0,9.468H41.873V33.4H4ZM4,19.2H41.873V14.468H4ZM4,5V9.734H41.873V5Z" transform="translate(-1998 -4514)" fill="#fff"/>
    <path id="ic_person_24px" d="M13.189,13.189A4.595,4.595,0,1,0,8.595,8.595,4.593,4.593,0,0,0,13.189,13.189Zm0,2.3C10.122,15.487,4,17.026,4,20.081v2.3H22.379v-2.3C22.379,17.026,16.256,15.487,13.189,15.487Z" transform="translate(-2091.855 -4496.46)" fill="#ff9800"/>
    <path id="ic_lock_outline_24px" d="M13.189,19.379a2.3,2.3,0,1,0-2.3-2.3A2.3,2.3,0,0,0,13.189,19.379ZM20.081,9.041H18.933v-2.3a5.743,5.743,0,0,0-11.487,0v2.3H6.3a2.3,2.3,0,0,0-2.3,2.3V22.825a2.3,2.3,0,0,0,2.3,2.3H20.081a2.3,2.3,0,0,0,2.3-2.3V11.338A2.3,2.3,0,0,0,20.081,9.041ZM9.628,6.743a3.561,3.561,0,0,1,7.122,0v2.3H9.628ZM20.081,22.825H6.3V11.338H20.081Z" transform="translate(-2057.8 -4496.217)" fill="#ff9800"/>
    <path id="ic_search_24px" d="M15.5,14h-.79l-.28-.27a6.51,6.51,0,1,0-.7.7l.27.28v.79l5,4.99L20.49,19Zm-6,0A4.5,4.5,0,1,1,14,9.5,4.494,4.494,0,0,1,9.5,14Z" transform="translate(-2152.173 -4492)" fill="rgba(0,0,0,0.5)"/>
    <path id="ic_exposure_plus_2_24px" d="M12.6,11.308H9.067v7.067H2v3.533H9.067v7.067H12.6V21.908h7.067V18.374H12.6Z" transform="translate(-2103.188 -4503.825) rotate(45)" fill="rgba(0,0,0,0.5)"/>
    <rect id="Rectangle_92" data-name="Rectangle 92" width="102" height="72" transform="translate(-1912 -4528)" fill="#ff9800"/>
    <path id="ic_date_range_24px" d="M17.873,24.309H12.915v4.958h4.958Zm9.915,0H22.83v4.958h4.958Zm9.915,0H32.745v4.958H37.7ZM42.661,6.958H40.182V2H35.224V6.958H15.394V2H10.436V6.958H7.958a4.935,4.935,0,0,0-4.933,4.958L3,46.618a4.956,4.956,0,0,0,4.958,4.958h34.7a4.972,4.972,0,0,0,4.958-4.958v-34.7A4.972,4.972,0,0,0,42.661,6.958Zm0,39.661H7.958V19.351h34.7Z" transform="translate(-1886 -4519)" fill="#fff"/>
    <text id="_" data-name="“" transform="translate(-1748.255 -4382.5)" fill="#f60" font-size="180" font-family="Aller-Bold, Aller" font-weight="700" letter-spacing="0.01em"><tspan x="-46.44" y="0">“</tspan></text>
    <g id="Group_102" data-name="Group 102" transform="translate(439.773 -250)">
      <g transform="matrix(1, 0, 0, 1, -2600.76, -4300.5)" filter="url(#Ellipse_1)">
        <path id="Ellipse_1-4" data-name="Ellipse 1" d="M32.967,0A32.967,32.967,0,1,1,0,32.967,32.967,32.967,0,0,1,32.967,0Z" transform="translate(9 123.72)" fill="#fff"/>
      </g>
      <g transform="matrix(1, 0, 0, 1, -2600.76, -4300.5)" filter="url(#Ellipse_1-2)">
        <circle id="Ellipse_1-5" data-name="Ellipse 1" cx="32.967" cy="32.967" r="32.967" transform="translate(109 123.72)" fill="#fff"/>
      </g>
      <g transform="matrix(1, 0, 0, 1, -2600.76, -4300.5)" filter="url(#Ellipse_1-3)">
        <ellipse id="Ellipse_1-6" data-name="Ellipse 1" cx="32.991" cy="33.195" rx="32.991" ry="33.195" transform="translate(212 123.6)" fill="#fff"/>
      </g>
      <path id="ic_call_24px" d="M8.631,15.118A23.565,23.565,0,0,0,18.882,25.369L22.3,21.947a1.547,1.547,0,0,1,1.587-.373,17.744,17.744,0,0,0,5.553.887A1.56,1.56,0,0,1,31,24.016v5.429A1.56,1.56,0,0,1,29.444,31,26.442,26.442,0,0,1,3,4.556,1.56,1.56,0,0,1,4.556,3H10a1.56,1.56,0,0,1,1.556,1.556,17.672,17.672,0,0,0,.887,5.553,1.561,1.561,0,0,1-.389,1.587Z" transform="translate(-2576.755 -4160.5)" fill="#ff9800"/>
      <path id="ic_mail_outline_24px" d="M33.5,4H5.5A3.5,3.5,0,0,0,2.017,7.5L2,28.5A3.51,3.51,0,0,0,5.5,32h28A3.51,3.51,0,0,0,37,28.5V7.5A3.51,3.51,0,0,0,33.5,4Zm0,24.5H5.5V11l14,8.75L33.5,11Zm-14-12.25L5.5,7.5h28Z" transform="translate(-2478.755 -4160.5)" fill="#ff9800"/>
      <path id="ic_place_24px" d="M18.5,2A13.49,13.49,0,0,0,5,15.5C5,25.625,18.5,40.572,18.5,40.572S32,25.625,32,15.5A13.49,13.49,0,0,0,18.5,2Zm0,18.321A4.821,4.821,0,1,1,23.321,15.5,4.823,4.823,0,0,1,18.5,20.321Z" transform="translate(-2375.255 -4163.786)" fill="none" stroke="#ff9800" stroke-width="4"/>
    </g>
    <g id="Group_108" data-name="Group 108" transform="translate(-1711.891 -4682.586)">
      <rect id="Rectangle_60" data-name="Rectangle 60" width="43.278" height="43.278" rx="8" transform="translate(25.313 165.586)" fill="#ff8001"/>
      <path id="Path_8" data-name="Path 8" d="M41.771,190.949v-9.015h7.213v9.015a1.808,1.808,0,0,0,1.8,1.8H56.2a1.808,1.808,0,0,0,1.8-1.8V178.326h3.066a.894.894,0,0,0,.6-1.568L46.585,163.179a1.818,1.818,0,0,0-2.416,0L29.094,176.758a.9.9,0,0,0,.6,1.568h3.066v12.622a1.808,1.808,0,0,0,1.8,1.8h5.41A1.808,1.808,0,0,0,41.771,190.949Z" transform="translate(1.575 8.899)" fill="#e6e6e6"/>
    </g>
    <g id="Group_109" data-name="Group 109" transform="translate(-1710.104 -4712.586)">
      <path id="Path_9" data-name="Path 9" d="M46,255.762c-4.034,0-12.086,2.031-12.086,6.109v3.055H58.089v-3.055C58.089,257.793,50.037,255.762,46,255.762Zm-13.6-6.11V245.07H29.386v4.583H24.854v3.054h4.532v4.583h3.021v-4.583h4.532v-3.054M46,252.707a6.01,6.01,0,0,0,4.273-1.789,6.158,6.158,0,0,0,0-8.641,6,6,0,0,0-8.546,0,6.158,6.158,0,0,0,0,8.641A6.01,6.01,0,0,0,46,252.707Z" transform="translate(1.359 13.152)" fill="#c6c6c6"/>
    </g>
    <g id="Group_110" data-name="Group 110" transform="translate(-1714.926 -4712.586)">
      <path id="Path_10" data-name="Path 10" d="M57.326,319.94H53.92a2.043,2.043,0,0,0,0,4.087h1.362a2.043,2.043,0,0,1,0,4.087H51.877m2.725,0v1.363m0-10.9v1.363m-8.174,8.174H36.891a2.725,2.725,0,0,1-2.725-2.724V311.766a2.723,2.723,0,0,1,2.725-2.724h2.725m16.348,4.25v-1.526a2.723,2.723,0,0,0-2.725-2.724H50.514" transform="translate(1.868 16.901)" fill="none" stroke="#c6c6c6" stroke-linecap="round" stroke-linejoin="round" stroke-width="2"/>
      <path id="Path_11" data-name="Path 11" d="M50.3,313.482v-8.174a2.725,2.725,0,0,0-2.725-2.725H42.129a2.725,2.725,0,0,0-2.725,2.725v8.174m10.9,0H39.4m10.9,0h1.362m-12.261,0H38.042m1.362,5.449v.014m0,4.073v.014m5.449-4.114v.014m0,4.087v.014" transform="translate(2.08 16.547)" fill="none" stroke="#c6c6c6" stroke-linecap="round" stroke-linejoin="round" stroke-width="2"/>
    </g>
    <g id="Group_111" data-name="Group 111" transform="translate(-1678.922 -4261.18)" clip-path="url(#clip-path)">
      <path id="Path_71" data-name="Path 71" d="M47.6,441.184a6.645,6.645,0,0,0,4.688-1.931,6.564,6.564,0,0,0,0-9.321,6.655,6.655,0,0,0-9.376,0,6.564,6.564,0,0,0,0,9.321A6.645,6.645,0,0,0,47.6,441.184Zm-4.972,2.842A9.193,9.193,0,0,0,36,452.838a1.534,1.534,0,0,0,1.538,1.529H57.665a1.534,1.534,0,0,0,1.538-1.529,9.193,9.193,0,0,0-6.629-8.812v2.617a3.3,3.3,0,0,1,2.486,3.193v2.06a.829.829,0,0,1-.829.825H53.4a.824.824,0,1,1,0-1.648v-1.236a1.657,1.657,0,0,0-3.315,0v1.236a.824.824,0,1,1,0,1.648h-.829a.829.829,0,0,1-.829-.825v-2.06a3.3,3.3,0,0,1,2.486-3.193V443.7a9.362,9.362,0,0,0-.948-.046H45.235a9.362,9.362,0,0,0-.948.046v3.368a2.9,2.9,0,1,1-1.657,0Zm.829,7.045a1.239,1.239,0,1,0-.879-.362A1.245,1.245,0,0,0,43.458,451.071Z" transform="translate(-36 -428)" fill="#c6c6c6"/>
    </g>
    <path id="Path_72" data-name="Path 72" d="M34.333,504.28v-6.152a2.47,2.47,0,0,1,2.461-2.461H56.482a2.468,2.468,0,0,1,2.461,2.461v7.813a5.657,5.657,0,0,0-2.153-.43,5.57,5.57,0,0,0-1.415.185,6.389,6.389,0,0,0-1.353.523,5.191,5.191,0,0,0-.585-.277,6.066,6.066,0,0,0-.646-.215V504.28H48.638l-2.123-4.245a1.006,1.006,0,0,0-.461-.461,1.432,1.432,0,0,0-1.292,0,1.007,1.007,0,0,0-.461.461l-3.814,7.63-1.354-2.707a1.063,1.063,0,0,0-.461-.508,1.32,1.32,0,0,0-.646-.169Zm2.461,11.074a2.468,2.468,0,0,1-2.461-2.461v-6.152h2.922l2.123,4.245a1.061,1.061,0,0,0,.461.507,1.3,1.3,0,0,0,.646.169,1.333,1.333,0,0,0,.646-.169,1.048,1.048,0,0,0,.461-.507l3.814-7.63,1.354,2.707a1.361,1.361,0,0,0,.385.446,1.32,1.32,0,0,0,.538.231,5.825,5.825,0,0,0-1.661,2,5.65,5.65,0,0,0-.615,2.616,5.4,5.4,0,0,0,.385,2.168,6.986,6.986,0,0,0,1.245,1.83Zm14.458-7.383a3.279,3.279,0,0,1,1.538.369,3.608,3.608,0,0,1,1.231,1.077,3.608,3.608,0,0,1,1.231-1.077,3.374,3.374,0,0,1,4.922,3.015,3.446,3.446,0,0,1-.8,2.138,28.307,28.307,0,0,1-3.507,3.337l-1.846,1.6-1.846-1.6a28.472,28.472,0,0,1-3.507-3.337,3.446,3.446,0,0,1-.8-2.138,3.362,3.362,0,0,1,3.384-3.385Z" transform="translate(-1714.224 -4685.479)" fill="#c6c6c6"/>
    <g id="Group_112" data-name="Group 112" transform="translate(-1716.891 -4712.586)">
      <g id="Group_4" data-name="Group 4" transform="translate(36.914 384.961)" clip-path="url(#clip-path-2)">
        <path id="Path_15" data-name="Path 15" d="M53.047,382.8,47.656,388.1,42.266,382.8A7.513,7.513,0,0,0,35,390.239a3.212,3.212,0,0,0,.963,2.29,3.314,3.314,0,0,0,2.326.948H57.024a3.314,3.314,0,0,0,2.326-.948,3.212,3.212,0,0,0,.963-2.29A7.513,7.513,0,0,0,53.047,382.8Zm-5.391-.89a7.29,7.29,0,0,0,5.114-2.085,7.062,7.062,0,0,0,2.118-5.034v-6.128a1.759,1.759,0,0,0-.321-1.015,1.8,1.8,0,0,0-.852-.654l-4.79-1.766a3.664,3.664,0,0,0-2.539,0l-4.79,1.768a1.809,1.809,0,0,0-.851.653,1.761,1.761,0,0,0-.322,1.014v6.128a7.062,7.062,0,0,0,2.118,5.034A7.29,7.29,0,0,0,47.656,381.908ZM45.4,368.987a.278.278,0,0,1,.083-.2.287.287,0,0,1,.2-.081H46.9V367.5a.274.274,0,0,1,.083-.2.283.283,0,0,1,.2-.082h.941a.283.283,0,0,1,.2.082.274.274,0,0,1,.083.2v1.206h1.224a.287.287,0,0,1,.2.081.278.278,0,0,1,.083.2v.926a.278.278,0,0,1-.083.2.287.287,0,0,1-.2.081H48.409V371.4a.276.276,0,0,1-.083.2.287.287,0,0,1-.2.081h-.941a.287.287,0,0,1-.2-.081.276.276,0,0,1-.083-.2v-1.206H45.679a.287.287,0,0,1-.2-.081.278.278,0,0,1-.083-.2Zm-2.26,4.913h9.04v.889a4.414,4.414,0,0,1-1.324,3.146,4.57,4.57,0,0,1-6.392,0,4.414,4.414,0,0,1-1.324-3.146Z" transform="translate(-35 -365)" fill="#c6c6c6"/>
      </g>
    </g>
    <g id="Group_113" data-name="Group 113" transform="translate(-1679.922 -4143.953)" clip-path="url(#clip-path-3)">
      <path id="Path_73" data-name="Path 73" d="M57.114,627.93a.249.249,0,0,0-.017-.115.255.255,0,0,0-.067-.1L56.355,627a.274.274,0,0,0-.3,0,7.272,7.272,0,0,1-2.848.57,7.155,7.155,0,0,1-2.3-.369.263.263,0,0,0-.327.148,7.8,7.8,0,0,1-1.055,1.73.3.3,0,0,0,0,.232,6.3,6.3,0,0,0,.264.759.264.264,0,0,0,.148.137c2.573.949,5.917,2.521,5.917,7.383v1.582a2.129,2.129,0,0,1,0,.232.262.262,0,0,0,.063.211.282.282,0,0,0,.2.084h3.923a.526.526,0,0,0,.527-.527v-.9c0-3.269-2.278-4.082-4.293-4.8l-.517-.19a.264.264,0,0,1-.148-.137,1.054,1.054,0,0,1-.074-.211,3.059,3.059,0,0,1,0-1.308A5.759,5.759,0,0,0,57.114,627.93Z" transform="translate(-35.261 -614.346)" fill="#c6c6c6"/>
      <path id="Path_74" data-name="Path 74" d="M46.547,620.637a7.382,7.382,0,0,1,.327-2.173.285.285,0,0,0,0-.211.314.314,0,0,0-.179-.127,5.484,5.484,0,0,0-1.2-.127,4.875,4.875,0,0,0-5.01,5.273c0,4.387,1.782,5.442,1.993,5.885a3.618,3.618,0,0,1,.063,2.014c-.074.274-.179.39-.253.422l-.8.285c-2.573.949-5.484,1.941-5.484,6.159v1.582a.526.526,0,0,0,.527.527h17.93a.526.526,0,0,0,.527-.527v-1.582c0-4.166-2.921-5.2-5.505-6.128l-.823-.274c-.074,0-.179-.148-.253-.422a3.744,3.744,0,0,1,0-2.014,7.387,7.387,0,0,0,1.4-2.109.285.285,0,0,0-.095-.327,7.382,7.382,0,0,1-3.164-6.128Z" transform="translate(-36 -614.836)" fill="#c6c6c6"/>
      <path id="Path_75" data-name="Path 75" d="M56.461,625.7a.275.275,0,0,1,.327,0L58.9,627.8a1.059,1.059,0,1,0,1.5-1.5L58.285,624.2a.274.274,0,0,1,0-.327,5.8,5.8,0,1,0-1.825,1.825ZM49.605,620.8a3.691,3.691,0,1,1,1.081,2.61A3.689,3.689,0,0,1,49.605,620.8Z" transform="translate(-35.367 -615.001)" fill="#c6c6c6"/>
    </g>
    <g id="Group_114" data-name="Group 114" transform="translate(-1718.365 -4792.586)">
      <path id="Path_19" data-name="Path 19" d="M39.265,671.763a.891.891,0,0,0-.89.89v19.418a.891.891,0,0,0,.89.89H55.283a.891.891,0,0,0,.89-.89v-12.62a.888.888,0,0,0-.07-.348.9.9,0,0,0-.2-.293L48.9,672.018a.894.894,0,0,0-.619-.253Zm13.822,6.8-3.921-3.8v3.8Zm-7.593,1.132h-3.56v-1.779h3.56Zm7.119,4.45H41.935v-1.78H52.613Zm-10.679,4.45H52.613v-1.78H41.935Z" transform="translate(2.099 36.737)" fill="#c6c6c6" fill-rule="evenodd"/>
      <path id="Path_20" data-name="Path 20" d="M57.722,682.656v11.569H42.594V696H58.612a.89.89,0,0,0,.89-.889V682.656Z" transform="translate(2.329 37.333)" fill="#c6c6c6"/>
    </g>
    <g id="Group_115" data-name="Group 115" transform="translate(-2061.093 -4327.852)" clip-path="url(#clip-path-4)">
      <path id="Path_76" data-name="Path 76" d="M1352.208,69.6h19.986a1.154,1.154,0,1,0,0-2.307h-19.912l4.177-4.173a1.155,1.155,0,0,0-1.635-1.631l-6.813,6.993,6.813,6.994a1.152,1.152,0,0,0,.812.338,1.176,1.176,0,0,0,.823-.338,1.148,1.148,0,0,0,0-1.631ZM1382.593,50h-19.607a2.308,2.308,0,0,0-2.31,2.307V62.689H1363V53.714a1.394,1.394,0,0,1,1.392-1.4h16.759a1.394,1.394,0,0,1,1.392,1.4l.042,29.5a1.4,1.4,0,0,1-1.4,1.4H1364.4a1.4,1.4,0,0,1-1.4-1.4V74.187l-2.32,0V84.607a2.308,2.308,0,0,0,2.31,2.307h19.607a2.308,2.308,0,0,0,2.31-2.307v-32.3A2.308,2.308,0,0,0,1382.593,50Z" transform="translate(-1348 -50)" fill="#565353"/>
    </g>
    <g id="Group_116" data-name="Group 116" transform="translate(-2122.261 -4314.141)" clip-path="url(#clip-path-5)">
      <path id="Path_77" data-name="Path 77" d="M1304.1,75.818l-7.246-7.253,1.814-1.813L1305,73.1l6.349-6.347,1.814,1.813-7.256,7.253a1.273,1.273,0,0,1-.907.375A1.291,1.291,0,0,1,1304.1,75.818Z" transform="translate(-1289.629 -62.795)" fill="#929292" fill-rule="evenodd"/>
    </g>
  </g>
</svg>
